<svg xmlns="http://www.w3.org/2000/svg" xmlns:xlink="http://www.w3.org/1999/xlink" width="29.261" height="29.261" viewBox="0 0 29.261 29.261">
  <defs>
    <linearGradient id="linear-gradient" x1="0.5" x2="0.5" y2="1" gradientUnits="objectBoundingBox">
      <stop offset="0" stop-color="#063efd"/>
      <stop offset="1" stop-color="#0043ff"/>
    </linearGradient>
  </defs>
  <g id="arrow-down-short" transform="translate(10.644 37.236) rotate(-135)">
    <path id="Path_141" data-name="Path 141" d="M.552.552a1.88,1.88,0,0,1,2.663,0l9.95,9.955L23.117.552A1.883,1.883,0,1,1,25.78,3.215L14.5,14.5a1.88,1.88,0,0,1-2.663,0L.552,3.215a1.88,1.88,0,0,1,0-2.663Z" transform="translate(0 11.278)" fill-rule="evenodd" fill="url(#linear-gradient)"/>
    <path id="Path_142" data-name="Path 142" d="M1.88,0a1.88,1.88,0,0,1,1.88,1.88v18.8a1.88,1.88,0,0,1-3.761,0V1.88A1.88,1.88,0,0,1,1.88,0Z" transform="translate(11.285 0)" fill-rule="evenodd" fill="url(#linear-gradient)"/>
  </g>
</svg>
