<svg width="260" height="54" viewBox="0 0 260 54" fill="none" xmlns="http://www.w3.org/2000/svg">
<path d="M72.2314 14.9609V38.5279H77.5314V30.6719L82.9314 38.5279H89.0834L82.3134 29.3609L88.7604 21.9609H82.4444L77.5314 28.3149V14.9609H72.2314Z" fill="#14222F"/>
<path d="M89.3545 30.3116C89.3545 24.9446 93.1545 21.4746 98.2545 21.4746C103.425 21.4746 107.254 24.9446 107.254 30.3116C107.254 35.5816 103.354 39.0196 98.2545 39.0196C93.2135 39.0196 89.3545 35.5816 89.3545 30.3116V30.3116ZM101.824 30.2796C101.824 27.6936 100.483 25.9586 98.2575 25.9586C96.0645 25.9586 94.7875 27.6936 94.7875 30.2796C94.7875 32.8326 96.0965 34.5336 98.2575 34.5336C100.483 34.5336 101.824 32.8336 101.824 30.2796Z" fill="#14222F"/>
<path d="M120.804 21.9648H126.144V38.5298H120.944V35.8098C120.509 36.7831 119.794 37.6048 118.891 38.1704C117.987 38.736 116.936 39.0199 115.87 38.9858C111.91 38.9858 109.946 36.3988 109.946 32.3078V21.9648H115.246V31.1648C115.246 33.3918 116.064 34.6348 117.93 34.6348C119.861 34.6348 120.81 33.1288 120.81 30.6418L120.804 21.9648Z" fill="#14222F"/>
<path d="M129.271 37.0547V32.8657C131.003 34.1791 133.09 34.943 135.261 35.0587C136.668 35.0587 137.487 34.5677 137.487 33.5537C137.487 32.8657 136.996 32.4077 135.818 32.0797L133.527 31.4907C130.647 30.7717 129.174 29.2977 129.174 26.8107C129.174 23.6037 131.859 21.4757 136.244 21.4757C138.311 21.4261 140.348 21.9823 142.103 23.0757V27.0367C140.525 25.9772 138.669 25.4077 136.768 25.3997C135.295 25.3997 134.575 25.8577 134.575 26.6097C134.575 27.2647 135.033 27.6907 136.244 27.9847L138.6 28.5097C141.71 29.1967 143.019 30.9317 143.019 33.3867C143.019 36.7237 140.205 39.0157 135.819 39.0157C133.488 39.0392 131.205 38.3539 129.273 37.0507" fill="#14222F"/>
<path d="M162.337 28.1519V38.5269H157.037V29.3269C157.037 27.1009 156.284 25.9219 154.386 25.9219C152.421 25.9219 151.374 27.3959 151.374 29.6539V38.5239H146.074V14.9609H151.374V24.2889C151.884 23.3807 152.64 22.6347 153.554 22.1367C154.469 21.6387 155.506 21.409 156.545 21.4739C160.145 21.4739 162.339 23.8969 162.339 28.1529" fill="#14222F"/>
<path d="M170.747 21.9629H165.399V38.5339H170.747V21.9629Z" fill="#14222F"/>
<path d="M191.222 38.5279H185.068L179.668 30.6719V38.5279H174.368V14.9609H179.668V28.3159L184.578 21.9609H190.894L184.447 29.3609L191.222 38.5279Z" fill="#14222F"/>
<path d="M165.449 12.9992L164 18.5781L170.121 20.1679L171.57 14.5891L165.449 12.9992Z" fill="#4E2CFF"/>
<path d="M208.05 18.6992H212.69V38.9992H209.21L201.38 27.9792V38.9992H196.74V18.6992H200.22L208.05 29.7192V18.6992Z" fill="#14222F"/>
<path d="M226.55 24.4992H230.9V38.9992H226.55V37.6362C225.525 38.8156 224.085 39.4052 222.229 39.4052C220.315 39.4052 218.681 38.6706 217.328 37.2012C215.975 35.7126 215.298 33.8952 215.298 31.7492C215.298 29.6032 215.975 27.7956 217.328 26.3262C218.681 24.8376 220.315 24.0932 222.229 24.0932C224.085 24.0932 225.525 24.6829 226.55 25.8622V24.4992ZM220.605 34.3302C221.243 34.9682 222.074 35.2872 223.099 35.2872C224.124 35.2872 224.955 34.9682 225.593 34.3302C226.231 33.6922 226.55 32.8319 226.55 31.7492C226.55 30.6666 226.231 29.8062 225.593 29.1682C224.955 28.5302 224.124 28.2112 223.099 28.2112C222.074 28.2112 221.243 28.5302 220.605 29.1682C219.967 29.8062 219.648 30.6666 219.648 31.7492C219.648 32.8319 219.967 33.6922 220.605 34.3302Z" fill="#14222F"/>
<path d="M244.734 24.4992H248.968V38.2742C248.968 40.5556 248.224 42.2762 246.735 43.4362C245.247 44.6156 243.439 45.2052 241.312 45.2052C238.045 45.2052 235.754 44.0356 234.439 41.6962L238.151 39.5502C238.809 40.7682 239.911 41.3772 241.457 41.3772C242.482 41.3772 243.284 41.1066 243.864 40.5652C244.444 40.0432 244.734 39.2796 244.734 38.2742V36.9402C243.729 38.1969 242.318 38.8252 240.5 38.8252C238.47 38.8252 236.769 38.1099 235.396 36.6792C234.043 35.2292 233.366 33.4892 233.366 31.4592C233.366 29.4292 234.043 27.6989 235.396 26.2682C236.769 24.8182 238.47 24.0932 240.5 24.0932C242.318 24.0932 243.729 24.7216 244.734 25.9782V24.4992ZM238.702 33.8952C239.36 34.5139 240.201 34.8232 241.225 34.8232C242.25 34.8232 243.091 34.5139 243.748 33.8952C244.406 33.2766 244.734 32.4646 244.734 31.4592C244.734 30.4539 244.406 29.6419 243.748 29.0232C243.091 28.4046 242.25 28.0952 241.225 28.0952C240.201 28.0952 239.36 28.4046 238.702 29.0232C238.045 29.6419 237.716 30.4539 237.716 31.4592C237.716 32.4646 238.045 33.2766 238.702 33.8952Z" fill="#14222F"/>
<path d="M256.919 39.8141C258.502 39.8141 259.786 38.5305 259.786 36.9471C259.786 35.3637 258.502 34.0801 256.919 34.0801C255.335 34.0801 254.052 35.3637 254.052 36.9471C254.052 38.5305 255.335 39.8141 256.919 39.8141Z" fill="#4E2CFF"/>
<path d="M26.7207 53.534C21.1787 53.534 15.6377 53.556 10.0957 53.527C7.85218 53.5623 5.66324 52.8345 3.88762 51.4627C2.11199 50.091 0.855005 48.1568 0.322671 45.977C0.110114 45.073 0.00737199 44.1467 0.0166705 43.218C-0.0033295 32.2154 -0.0063295 21.2127 0.0076705 10.21C-0.0326163 8.88026 0.196515 7.55607 0.681279 6.31714C1.16604 5.07821 1.89642 3.95014 2.82847 3.00081C3.76052 2.05148 4.87498 1.3005 6.10479 0.793057C7.33461 0.285615 8.65437 0.032196 9.98467 0.0480469C21.1487 -0.0186198 32.313 -0.0186198 43.4777 0.0480469C44.7987 0.0221373 46.1113 0.262987 47.337 0.756183C48.5628 1.24938 49.6764 1.98478 50.6114 2.91839C51.5463 3.852 52.2832 4.96462 52.7781 6.18967C53.273 7.41472 53.5157 8.72702 53.4917 10.048C53.553 21.252 53.553 32.4567 53.4917 43.662C53.493 44.9715 53.2336 46.2681 52.7285 47.4763C52.2233 48.6844 51.4827 49.7798 50.5496 50.6986C49.6166 51.6174 48.5099 52.3411 47.2942 52.8276C46.0784 53.3141 44.778 53.5536 43.4687 53.532C37.8867 53.573 32.3047 53.541 26.7227 53.541L26.7207 53.534ZM41.5377 4.44105C40.6887 4.44105 39.8377 4.48305 38.9907 4.43105C38.4684 4.36829 37.9396 4.47269 37.4804 4.72927C37.0211 4.98584 36.655 5.38137 36.4347 5.85905C31.8347 14.059 27.1997 22.235 22.6087 30.438C22.5107 30.6398 22.4568 30.86 22.4506 31.0842C22.4444 31.3083 22.486 31.5312 22.5727 31.738C25.4517 37.106 28.3797 42.447 31.2907 47.798C31.4907 48.2203 31.8121 48.5732 32.2138 48.8117C32.6155 49.0503 33.0792 49.1635 33.5457 49.137C35.4057 49.115 37.2657 49.153 39.1247 49.124C40.6417 49.101 40.9247 48.575 40.1837 47.219C37.8503 42.933 35.5117 38.6487 33.1677 34.366C32.5897 33.305 31.5757 32.226 31.5907 31.166C31.6067 30.056 32.5907 28.944 33.2027 27.861C37.226 20.723 41.2583 13.591 45.2997 6.46505C46.1557 4.94905 45.8517 4.45305 44.0877 4.43805C43.2387 4.43005 42.3877 4.43805 41.5407 4.43805L41.5377 4.44105ZM14.5127 13.305C13.6227 13.305 12.7327 13.305 11.8417 13.305C10.0417 13.31 9.80367 13.723 10.7197 15.32C11.8647 17.32 12.9937 19.32 14.2057 21.279C14.4101 21.5633 14.5182 21.9055 14.5143 22.2557C14.5103 22.6058 14.3945 22.9455 14.1837 23.225C12.1207 26.79 10.1077 30.384 8.08367 33.974C7.43867 35.12 7.77567 35.733 9.10467 35.758C11.0467 35.794 12.9897 35.763 14.9317 35.769C15.319 35.7886 15.7039 35.6966 16.0406 35.5042C16.3774 35.3117 16.6519 35.0267 16.8317 34.683C19.0777 30.711 21.3317 26.741 23.5407 22.751C23.6194 22.5819 23.6611 22.3978 23.663 22.2112C23.6649 22.0246 23.6269 21.8398 23.5517 21.669C22.2107 19.228 20.8257 16.81 19.4317 14.398C19.2434 14.0368 18.9522 13.7395 18.595 13.5437C18.2378 13.3479 17.8305 13.2624 17.4247 13.298C16.4557 13.342 15.4827 13.308 14.5117 13.308" fill="url(#paint0_linear_7_48)"/>
<defs>
<linearGradient id="paint0_linear_7_48" x1="26.7683" y1="-0.00195312" x2="26.7683" y2="53.5529" gradientUnits="userSpaceOnUse">
<stop stop-color="#4E2CFF"/>
<stop offset="1" stop-color="#00299B"/>
</linearGradient>
</defs>
</svg>
